# This file uses meters as units for non-parametric coordinates.

mtllib GemModel.mtl
g default
v -194.255219 70.884682 53.414333
v -214.386932 95.183741 53.414333
v -131.898804 95.183741 53.414333
v -152.030518 70.884682 53.414333
v -191.582336 95.570330 63.075176
v -154.703415 95.570330 63.075176
v -214.386932 129.849546 53.414333
v -191.582336 129.462957 63.075176
v -194.255219 154.148605 53.414333
v -152.030518 154.148605 53.414333
v -154.703415 129.462957 63.075176
v -131.898804 129.849546 53.414333
v -149.241104 112.516644 63.075176
v -173.142853 136.650229 63.075176
v -197.044647 112.516644 63.075176
v -173.142853 88.383059 63.075176
v -194.255219 70.884682 40.552223
v -214.386932 95.183741 40.552223
v -131.898804 95.183741 40.552223
v -152.030518 70.884682 40.552223
v -191.582336 95.570330 30.704182
v -154.703415 95.570330 30.704182
v -214.386932 129.849546 40.552223
v -191.582336 129.462957 30.704182
v -194.255219 154.148605 40.552223
v -152.030518 154.148605 40.552223
v -154.703415 129.462957 30.704182
v -131.898804 129.849546 40.552223
v -149.241104 112.516644 30.704182
v -173.142853 136.650229 30.704182
v -197.044647 112.516644 30.704182
v -173.142853 88.383059 30.704182
v -217.134674 94.028999 56.037159
v -195.661758 68.111103 56.037159
v -217.134674 131.004288 56.037159
v -195.661758 156.922184 56.037159
v -150.623978 156.922184 56.037159
v -129.151062 131.004288 56.037159
v -129.151062 94.028999 56.037159
v -150.623978 68.111103 56.037159
v -195.661758 68.111103 37.929401
v -217.134674 94.029003 37.929401
v -217.134674 131.004288 37.929401
v -195.661758 156.922184 37.929401
v -150.623978 156.922184 37.929401
v -129.151062 131.004288 37.929401
v -129.151062 94.028999 37.929401
v -150.623978 68.111103 37.929401
v -221.290909 91.902224 50.010273
v -197.347794 63.002792 50.010273
v -221.290909 91.902229 43.956287
v -197.347794 63.002792 43.956287
v -221.290909 133.131063 50.010273
v -221.290909 133.131063 43.956287
v -148.937927 162.030495 50.010273
v -197.347794 162.030495 50.010273
v -148.937927 162.030495 43.956287
v -197.347794 162.030495 43.956287
v -124.994827 91.902224 50.010273
v -124.994827 133.131063 50.010273
v -124.994827 91.902224 43.956287
v -124.994827 133.131063 43.956287
v -148.937927 63.002792 50.010273
v -148.937927 63.002792 43.956287
v -173.142868 65.533363 46.983280
v -173.142853 112.516644 30.704182
v -173.142868 112.516644 63.075176
vt 0.806154 0.024739
vt 0.779703 0.116874
vt 0.738902 0.071719
vt 0.860508 0.155189
vt 0.711995 0.000000
vt 0.684306 0.076023
vt 0.050510 1.000000
vt 0.213832 0.149956
vt 0.195519 0.146437
vt 0.223655 0.000001
vt 0.264886 0.013212
vt 0.235028 0.162992
vt 0.192021 0.263479
vt 0.173708 0.259961
vt 0.212932 0.274168
vt 0.335963 0.117997
vt 0.344298 0.178279
vt 0.259299 0.149880
vt 0.298263 0.051044
vt 0.374407 0.078994
vt 0.118721 0.648360
vt 0.099156 0.644601
vt 0.127308 0.498078
vt 0.146873 0.501837
vt 0.150809 0.667374
vt 0.132045 0.762744
vt 0.119804 0.763101
vt 0.139830 0.661380
vt 0.180520 0.518012
vt 0.169791 0.511536
vt 0.275616 0.019685
vt 0.251075 0.147411
vt 0.238711 0.149447
vt 0.044392 0.745903
vt 0.065510 0.628426
vt 0.076239 0.634902
vt 0.055630 0.750771
vt 0.090064 0.500632
vt 0.102429 0.498593
vt 0.161871 0.130272
vt 0.186412 0.002546
vt 0.198776 0.000510
vt 0.172601 0.136745
vt 0.074726 0.648871
vt 0.077956 0.758241
vt 0.641543 0.110237
vt 0.612099 0.039522
vt 0.561875 0.132770
vt 0.683480 0.216240
vt 0.642679 0.171085
vt 0.780840 0.177722
vt 0.738077 0.211936
vt 0.616229 0.263220
vt 0.168074 0.388196
vt 0.149731 0.384672
vt 0.190400 0.395666
vt 0.392820 -0.000000
vt 0.428108 0.068255
vt 0.489271 0.013268
vt 0.473932 0.108300
vt 0.128026 0.778154
vt 0.105809 0.898800
vt 0.094589 0.893935
vt 0.117207 0.772454
vt 0.087469 0.994252
vt 0.075028 0.995746
vt 0.022278 0.866569
vt 0.042414 0.761705
vt 0.054576 0.760420
vt 0.033098 0.872270
vt 0.000000 0.977446
vt 0.011002 0.983445
vt 0.054009 0.882958
vt 0.032197 0.996481
vt 0.810284 0.248437
vt 0.390122 0.218323
vt 0.443823 0.207584
vt 0.425410 0.286579
vt 0.328958 0.273311
vt 0.072322 0.886477
vt 0.201638 0.400534
vt 0.183723 0.496068
vt 0.171304 0.497566
vt 0.095221 0.479064
vt 0.113984 0.383693
vt 0.126226 0.383336
vt 0.106200 0.485058
vt 0.710387 0.287958
vt 0.096299 0.761766
vt 0.558930 0.136699
vt 0.482266 0.168582
vt 0.519967 0.235535
vt 0.246030 0.168991
vt 0.223752 0.279869
vt 0.203615 0.384732
vt 0.191454 0.386017
vt 0.140221 0.247637
vt 0.158560 0.152185
vt 0.171002 0.150691
vt 0.151441 0.252502
vt 0.118004 0.368283
vt 0.128823 0.373984
vt 0.241968 0.003520
vt 0.150324 0.262139
vt 0.030563 0.881634
vt 0.215467 0.264804
vt 0.095705 0.884299
vt 0.143601 0.647844
vt 0.138162 0.263424
vt 0.018339 0.881994
vt 0.062307 0.650369
vt 0.227691 0.264443
vt 0.107868 0.883013
vt 0.155966 0.645805
vt 0.560352 0.121985
vt 0.609960 0.254312
vt 0.812422 0.033646
vt 0.862030 0.165974
vt 0.496828 0.021657
vt 0.561797 0.147619
vt 0.321402 0.264922
vt 0.256432 0.138960
vt 0.123015 0.573219
vt 0.409115 0.143289
vt 0.711191 0.143979
vn -0.453666 0.042243 0.890170
vn -0.438947 -0.000000 0.898513
vn -0.385271 0.124185 0.914409
vn -0.135753 -0.348285 0.927507
vn -0.049876 -0.435936 0.898594
vn 0.000000 -0.425503 0.904957
vn 0.385271 -0.124185 0.914409
vn 0.453665 -0.042243 0.890170
vn 0.438947 -0.000000 0.898513
vn 0.049876 0.435937 0.898594
vn 0.000000 0.425503 0.904957
vn 0.135754 0.348285 0.927507
vn 0.000000 0.000000 1.000000
vn 0.000000 0.000000 1.000000
vn 0.000000 0.000000 1.000000
vn 0.000000 0.000000 1.000000
vn -0.367209 -0.304232 0.878977
vn -0.367209 -0.304231 0.878977
vn -0.367209 -0.304232 0.878977
vn 0.367208 -0.304231 0.878978
vn 0.367208 -0.304231 0.878978
vn 0.367208 -0.304231 0.878978
vn -0.367209 0.304231 0.878977
vn -0.367209 0.304231 0.878977
vn -0.367209 0.304231 0.878977
vn 0.367209 0.304231 0.878978
vn 0.367209 0.304231 0.878978
vn 0.367209 0.304231 0.878978
vn 0.049876 -0.435937 0.898594
vn 0.135754 -0.348285 0.927507
vn 0.453666 0.042243 0.890170
vn 0.385271 0.124185 0.914409
vn -0.049876 0.435937 0.898594
vn -0.135753 0.348285 0.927507
vn -0.453666 -0.042243 0.890170
vn -0.385271 -0.124185 0.914409
vn -0.770050 -0.637984 0.000000
vn -0.770050 -0.637984 0.000000
vn -0.770050 -0.637984 0.000000
vn -0.770050 -0.637984 0.000000
vn -1.000000 0.000000 0.000001
vn -1.000000 0.000000 0.000001
vn -1.000000 0.000000 0.000001
vn -1.000000 0.000000 0.000001
vn 0.000000 1.000000 0.000000
vn 0.000000 1.000000 0.000000
vn 0.000000 1.000000 0.000000
vn 0.000000 1.000000 0.000000
vn 1.000000 0.000000 0.000000
vn 1.000000 0.000000 0.000000
vn 1.000000 0.000000 0.000000
vn 1.000000 0.000000 0.000000
vn 0.770050 -0.637984 0.000000
vn 0.770050 -0.637984 0.000000
vn 0.770050 -0.637984 0.000000
vn 0.770050 -0.637984 0.000000
vn -0.460715 0.042730 -0.886519
vn -0.391484 0.126187 -0.911492
vn -0.445669 0.000000 -0.895198
vn -0.138007 -0.354067 -0.924981
vn 0.000000 -0.432094 -0.901829
vn -0.050477 -0.442888 -0.895155
vn 0.391483 -0.126187 -0.911492
vn 0.445669 -0.000000 -0.895198
vn 0.460715 -0.042730 -0.886519
vn 0.050477 0.442888 -0.895155
vn 0.138007 0.354067 -0.924981
vn 0.000000 0.432094 -0.901829
vn 0.000000 -0.000000 -1.000000
vn 0.000000 -0.000000 -1.000000
vn 0.000000 0.000000 -1.000000
vn 0.000000 -0.000000 -1.000000
vn -0.372670 -0.308756 -0.875093
vn -0.372670 -0.308756 -0.875093
vn -0.372670 -0.308756 -0.875093
vn 0.372669 -0.308756 -0.875093
vn 0.372669 -0.308756 -0.875093
vn 0.372669 -0.308756 -0.875093
vn -0.372670 0.308756 -0.875093
vn -0.372670 0.308756 -0.875093
vn -0.372670 0.308756 -0.875093
vn 0.372669 0.308756 -0.875093
vn 0.372669 0.308756 -0.875093
vn 0.372669 0.308756 -0.875093
vn 0.138007 -0.354067 -0.924981
vn 0.050477 -0.442888 -0.895155
vn 0.391483 0.126187 -0.911492
vn 0.460715 0.042730 -0.886519
vn -0.050477 0.442888 -0.895155
vn -0.138007 0.354067 -0.924981
vn -0.460715 -0.042730 -0.886519
vn -0.391484 -0.126187 -0.911492
vn -0.770050 0.637984 0.000000
vn -0.770050 0.637984 0.000000
vn -0.770050 0.637984 0.000000
vn -0.770050 0.637984 0.000000
vn 0.770050 0.637984 0.000000
vn 0.770050 0.637984 0.000000
vn 0.770050 0.637984 0.000000
vn 0.770050 0.637984 0.000000
vn -0.093307 -0.992145 -0.083313
vn 0.000000 -1.000000 0.000000
vn -0.093307 -0.992145 0.083313
vn 0.521198 0.431812 0.736133
vn 0.521198 0.431812 0.736133
vn 0.521198 0.431812 0.736133
vn 0.521198 0.431812 0.736133
vn 0.690474 0.000000 0.723357
vn 0.690474 0.000000 0.723357
vn 0.690474 0.000000 0.723357
vn 0.690474 0.000000 0.723357
vn 0.521199 -0.431812 0.736132
vn 0.521199 -0.431812 0.736132
vn 0.521199 -0.431812 0.736132
vn 0.521199 -0.431812 0.736132
vn 0.000000 -0.687085 0.726577
vn 0.000000 -0.687085 0.726577
vn 0.000000 -0.687085 0.726577
vn 0.000000 -0.687085 0.726577
vn -0.521197 -0.431811 0.736134
vn -0.521197 -0.431811 0.736134
vn -0.521197 -0.431811 0.736134
vn -0.521197 -0.431811 0.736134
vn -0.690473 0.000000 0.723358
vn -0.690473 0.000000 0.723358
vn -0.690473 0.000000 0.723358
vn -0.690473 0.000000 0.723358
vn -0.521198 0.431811 0.736133
vn -0.521198 0.431811 0.736133
vn -0.521198 0.431811 0.736133
vn -0.521198 0.431811 0.736133
vn 0.000000 0.687085 0.726577
vn 0.000000 0.687085 0.726577
vn 0.000000 0.687085 0.726577
vn 0.000000 0.687085 0.726577
vn 0.521198 0.431812 -0.736133
vn 0.521198 0.431812 -0.736133
vn 0.521198 0.431812 -0.736133
vn 0.521198 0.431812 -0.736133
vn 0.690474 -0.000000 -0.723358
vn 0.690474 -0.000000 -0.723358
vn 0.690474 -0.000000 -0.723358
vn 0.690474 -0.000000 -0.723358
vn 0.521198 -0.431811 -0.736133
vn 0.521198 -0.431811 -0.736133
vn 0.521198 -0.431811 -0.736133
vn 0.521198 -0.431811 -0.736133
vn 0.000000 -0.687084 -0.726578
vn 0.000000 -0.687084 -0.726578
vn 0.000000 -0.687084 -0.726578
vn 0.000000 -0.687084 -0.726578
vn -0.521197 -0.431811 -0.736134
vn -0.521197 -0.431811 -0.736134
vn -0.521197 -0.431811 -0.736134
vn -0.521197 -0.431811 -0.736134
vn -0.690472 0.000000 -0.723359
vn -0.690472 0.000000 -0.723359
vn -0.690473 0.000000 -0.723359
vn -0.690473 0.000000 -0.723359
vn -0.521197 0.431810 -0.736134
vn -0.521197 0.431810 -0.736134
vn -0.521197 0.431810 -0.736134
vn -0.521197 0.431810 -0.736134
vn 0.000000 0.687084 -0.726578
vn 0.000000 0.687084 -0.726578
vn 0.000000 0.687084 -0.726578
vn 0.000000 0.687084 -0.726578
vn -0.614216 -0.508877 0.603144
vn -0.614216 -0.508877 0.603144
vn -0.614216 -0.508877 0.603144
vn -0.614216 -0.508877 0.603144
vn -0.614216 -0.508877 -0.603144
vn -0.614216 -0.508877 -0.603144
vn -0.614216 -0.508877 -0.603144
vn -0.614216 -0.508877 -0.603144
vn -0.823229 0.000000 0.567710
vn -0.823229 0.000000 0.567710
vn -0.823229 0.000000 0.567710
vn -0.823229 0.000000 0.567710
vn -0.823227 0.000000 -0.567712
vn -0.823227 0.000000 -0.567712
vn -0.823227 0.000000 -0.567712
vn -0.823227 0.000000 -0.567712
vn 0.000000 0.762847 0.646579
vn 0.000000 0.762847 0.646579
vn 0.000000 0.762847 0.646579
vn 0.000000 0.762847 0.646579
vn 0.000000 0.762847 -0.646579
vn 0.000000 0.762847 -0.646579
vn 0.000000 0.762847 -0.646579
vn 0.000000 0.762847 -0.646579
vn 0.823227 0.000000 0.567712
vn 0.823227 0.000000 0.567712
vn 0.823227 0.000000 0.567712
vn 0.823227 0.000000 0.567712
vn 0.823227 -0.000000 -0.567712
vn 0.823227 -0.000000 -0.567712
vn 0.823227 -0.000000 -0.567712
vn 0.823227 -0.000000 -0.567712
vn 0.614215 -0.508876 0.603146
vn 0.614215 -0.508876 0.603146
vn 0.614215 -0.508876 0.603146
vn 0.614215 -0.508876 0.603146
vn 0.614215 -0.508876 -0.603146
vn 0.614215 -0.508876 -0.603146
vn 0.614215 -0.508876 -0.603146
vn 0.614215 -0.508876 -0.603146
vn -0.614216 0.508877 -0.603144
vn -0.614216 0.508877 -0.603144
vn -0.614216 0.508877 -0.603144
vn -0.614216 0.508877 -0.603144
vn -0.614216 0.508877 0.603144
vn -0.614216 0.508877 0.603144
vn -0.614216 0.508877 0.603144
vn -0.614216 0.508877 0.603144
vn 0.614215 0.508876 -0.603146
vn 0.614215 0.508876 -0.603146
vn 0.614215 0.508876 -0.603146
vn 0.614215 0.508876 -0.603146
vn 0.614215 0.508876 0.603146
vn 0.614215 0.508876 0.603146
vn 0.614215 0.508876 0.603146
vn 0.614215 0.508876 0.603146
vn 0.000000 -0.762847 -0.646579
vn 0.000000 -0.762847 -0.646579
vn 0.000000 -0.762847 -0.646579
vn 0.000000 -0.762847 -0.646579
vn 0.000000 -0.762847 0.646579
vn 0.000000 -0.762847 0.646579
vn 0.000000 -0.762847 0.646579
vn 0.000000 -0.762847 0.646579
vn 0.093307 -0.992145 -0.083313
vn 0.093307 -0.992145 0.083313
vn 0.000000 -0.000000 -1.000000
vn 0.000000 0.000000 -1.000000
vn 0.000000 -0.000000 -1.000000
vn 0.000000 -0.000000 -1.000000
vn 0.000000 -0.000000 -1.000000
vn 0.000000 -0.000000 1.000000
vn 0.000000 0.000000 1.000000
vn 0.000000 0.000000 1.000000
vn 0.000000 -0.000000 1.000000
vn 0.000000 0.000000 1.000000
s 1
g Gem1
usemtl initialShadingGroup
f 7/75/1 15/52/2 8/51/3
s 2
f 5/49/4 1/116/5 16/50/6
s 3
f 6/46/7 3/47/8 13/6/9
s 4
f 10/117/10 14/2/11 11/3/12
s 5
f 67/125/13 16/50/14 6/46/15 13/6/16
s off
f 2/88/17 1/53/18 5/49/19
f 6/46/20 4/115/21 3/47/22
f 7/75/23 8/51/24 9/118/25
f 10/1/26 11/3/27 12/5/28
s 2
f 16/50/6 4/48/29 6/46/30
f 16/50/6 1/116/5 4/48/29
s 3
f 13/6/9 12/5/31 11/3/32
f 13/6/9 3/47/8 12/5/31
s 4
f 9/4/33 8/51/34 14/2/11
f 9/4/33 14/2/11 10/117/10
s 1
f 2/88/35 5/49/36 15/52/2
f 2/88/35 15/52/2 7/75/1
s off
f 50/21/37 49/89/38 51/45/39 52/22/40
f 49/89/41 53/80/42 54/73/43 51/45/44
f 56/103/45 55/8/46 57/9/47 58/10/48
f 60/13/49 59/54/50 61/55/51 62/14/52
f 59/54/53 63/24/54 64/23/55 61/55/56
s 6
f 23/57/57 24/58/58 31/20/59
s 7
f 21/16/60 32/17/61 17/18/62
s 8
f 22/76/63 29/77/64 19/78/65
s 9
f 26/90/66 27/91/67 30/60/68
s 10
f 29/77/69 66/124/70 30/60/71 27/91/72
s off
f 18/19/73 21/16/74 17/122/75
f 22/76/76 19/78/77 20/79/78
f 23/57/79 25/59/80 24/58/81
f 26/120/82 28/92/83 27/91/84
s 7
f 32/17/61 22/76/85 20/121/86
f 32/17/61 20/121/86 17/18/62
s 8
f 29/77/64 27/91/87 28/92/88
f 29/77/64 28/92/88 19/78/65
s 9
f 25/119/89 30/60/68 24/58/90
f 25/119/89 26/90/66 30/60/68
s 6
f 18/19/91 31/20/59 21/16/92
f 18/19/91 23/57/57 31/20/59
s off
f 56/7/93 58/74/94 54/73/95 53/80/96
f 60/13/97 62/14/98 57/9/99 55/8/100
s 11
f 63/24/101 65/123/102 64/23/103
s off
f 1/25/104 2/26/105 33/27/106 34/28/107
f 2/61/108 7/113/109 35/107/110 33/64/111
f 7/62/112 9/65/113 36/66/114 35/63/115
f 9/31/116 10/32/117 37/33/118 36/11/119
f 10/93/120 12/112/121 38/106/122 37/12/123
f 12/94/124 3/95/125 39/96/126 38/15/127
f 3/81/128 4/82/129 40/83/130 39/56/131
f 4/29/132 1/114/133 34/108/134 40/30/135
f 18/34/136 17/111/137 41/44/138 42/37/139
f 23/67/140 18/68/141 42/69/142 43/70/143
f 25/71/144 23/110/145 43/105/146 44/72/147
f 26/40/148 25/41/149 44/42/150 45/43/151
f 28/97/152 26/98/153 45/99/154 46/100/155
f 19/101/156 28/109/157 46/104/158 47/102/159
f 20/84/160 19/85/161 47/86/162 48/87/163
f 17/35/164 20/38/165 48/39/166 41/36/167
f 34/28/168 33/27/169 49/89/170 50/21/171
f 42/37/172 41/44/173 52/22/174 51/45/175
f 33/64/176 35/107/177 53/80/178 49/89/179
f 43/70/180 42/69/181 51/45/182 54/73/183
f 36/11/184 37/33/185 55/8/186 56/103/187
f 45/43/188 44/42/189 58/10/190 57/9/191
f 38/15/192 39/96/193 59/54/194 60/13/195
f 47/102/196 46/104/197 62/14/198 61/55/199
f 39/56/200 40/83/201 63/24/202 59/54/203
f 48/87/204 47/86/205 61/55/206 64/23/207
f 44/72/208 43/105/209 54/73/210 58/74/211
f 35/63/212 36/66/213 56/7/214 53/80/215
f 46/100/216 45/99/217 57/9/218 62/14/219
f 37/12/220 38/106/221 60/13/222 55/8/223
f 41/36/224 48/39/225 64/23/226 52/22/227
f 40/30/228 34/108/229 50/21/230 63/24/231
s 11
f 50/21/232 65/123/102 63/24/101
f 50/21/232 52/22/233 65/123/102
f 64/23/103 65/123/102 52/22/233
s 10
f 66/124/70 31/20/234 24/58/235 30/60/71
f 32/17/236 66/124/70 29/77/69 22/76/237
f 21/16/238 31/20/234 66/124/70 32/17/236
s 5
f 14/2/239 67/125/13 13/6/16 11/3/240
f 15/52/241 67/125/13 14/2/239 8/51/242
f 5/49/243 16/50/14 67/125/13 15/52/241
